<svg width="125" height="30" viewBox="0 0 125 30" fill="none" xmlns="http://www.w3.org/2000/svg">
<path d="M7.72141 18.12L10.0014 30H16.8414L13.7614 14.72L16.8414 0.4H10.0814L7.72141 12H7.24141V0.4H0.641406V13.36L3.28141 14.88L0.641406 16.4V19.16L3.28141 20.68L0.641406 22.2V24.96L3.28141 26.48L0.641406 28V30H7.24141V18.12H7.72141ZM18.5711 25.28L21.2111 26.8L18.5711 28.32V30H25.1711V0.4H18.5711V13.68L21.2111 15.2L18.5711 16.72V19.48L21.2111 21L18.5711 22.52V25.28ZM38.3555 17.2H38.7155L40.3955 30H46.3955L50.3155 0.4H44.1155L42.7155 14.08H42.3155L40.9155 0.4H36.5555L35.1555 14.08H34.7555L33.3555 0.4H26.7555L27.8355 8.64L30.8755 10.16L28.2355 11.44L28.6355 14.44L31.6355 15.96L28.9955 17.24L29.3955 20.24L32.3955 21.76L29.7555 23.04L30.6755 30H36.6755L38.3555 17.2ZM51.9305 25.28L54.5705 26.8L51.9305 28.32V30H58.5305V0.4H51.9305V13.68L54.5705 15.2L51.9305 16.72V19.48L54.5705 21L51.9305 22.52V25.28ZM60.5948 20.32L63.2348 21.84L60.5948 23.36V25.84L64.7548 30H71.7548L75.9148 25.84V16.96L67.1948 10V6.96C67.1948 6.28 67.6348 5.68 68.1948 5.68H68.5948C69.1948 5.68 69.5948 6.28 69.5948 6.96V11.24H75.9148V4.56L71.7548 0.4H64.7548L60.5948 4.56V7.4L63.2348 8.92L60.5948 10.44V13.28L69.3148 20.2V23.44C69.3148 24.12 68.8748 24.72 68.3148 24.72H67.9148C67.3148 24.72 66.9148 24.12 66.9148 23.44V19H60.5948V20.32ZM81.3145 24.92L83.9545 26.44L81.3145 27.96V30H87.8745V6.08H92.0345V0.4H77.1545V6.08H81.3145V13.32L83.9545 14.84L81.3145 16.36V19.12L83.9545 20.64L81.3145 22.16V24.92ZM99.4486 8.8H99.8486L100.889 19.92H98.4486L99.4486 8.8ZM98.0086 25.24H101.369L101.809 30H108.369L104.649 0.4H94.9286L94.6486 2.76L97.2886 4.08L94.2886 5.6L93.8886 8.56L96.5686 9.88L93.5286 11.4L93.1686 14.36L95.8086 15.68L92.8086 17.16L91.2086 30H97.5686L98.0086 25.24ZM118.945 30V20.36L124.145 0.4H117.905L116.065 10.32H115.745L113.785 0.4H107.185L109.305 8.56L112.305 10.08L109.985 11.24L110.785 14.4L113.785 15.88L111.465 17.04L112.305 20.24L115.225 21.68L112.345 23.12V30H118.945Z" fill="white"/>
</svg>
