<svg id="Layer_1" data-name="Layer 1" xmlns="http://www.w3.org/2000/svg" xmlns:xlink="http://www.w3.org/1999/xlink" viewBox="0 0 227.4 54.4"><defs><style>.cls-1{fill:none;}.cls-2{clip-path:url(#clip-path);}.cls-3{fill:#fff;}.cls-4{fill:#a7a9ac;}</style><clipPath id="clip-path" transform="translate(0)"><rect class="cls-1" width="227.4" height="54.4"/></clipPath></defs><g class="cls-2"><path class="cls-3" d="M7,29.7c.1-.1,1.8,6.7,11.1,5.5-1.8-4.4-7.6-7.3-8.9-7.4.3-.2,1.9-1.4,2.2-1.6-.4,1.2,5,6.2,9.2,4.8-1.1-3.4-5.7-6.3-6.9-6.3l1.5-.9c-.3.6,3.7,4.5,7.9,4.2,0-2-4.5-5.8-5.4-5.5.4-.2,1.1-.6,1.3-.7.6,1.4,4.5,4.3,7.2,3.9-2.2-4.7-5-4.9-5-4.9a5.29,5.29,0,0,1,1.3-.6c0,1.2,3.9,4.1,6.5,3.4a6.05,6.05,0,0,0-4.7-4.3c.5-.2,1-.5,1.4-.7-.2.4,3,3.1,6.1,2.9-1.5-3.6-3.5-3.7-4.3-3.8a8.26,8.26,0,0,0,1.3-.7c.2.5,1.9,2.8,5.9,2.2a5.37,5.37,0,0,0-4.3-3l1.4-.7c.3.3,1.3,2.5,5.4,1.7a4.52,4.52,0,0,0-3.5-2.7,8.79,8.79,0,0,0,1-.6,4.87,4.87,0,0,0,4.6,1.4c-.4-1.3-2-2-3.5-2.1l1.2-.8c.2.5,1.4,1.7,4.3.9-.9-1.8-3.3-1.6-3.3-1.6.6-.4.7-.6,1.2-.9a2.77,2.77,0,0,0,3.7.6,2.47,2.47,0,0,0-2.8-1.3,6,6,0,0,0,.8-.8c-.1.3,1.7,1.2,3.3,0a3.52,3.52,0,0,0-2.5-.9c.4-.4.5-.4.7-.7a2.08,2.08,0,0,0,2.8-.3,2.72,2.72,0,0,0-2.4-.3l.5-.8c.2.3,1.8.6,2.3-.4-.4-.4-1.8-.3-2-.2,0,0,.2-.3.3-.5,2.9.3,1.9-3,1.2-4.9C34.4,16.8,20,5.1,2.5,15.5a15.16,15.16,0,0,0-.9,6.7,3.87,3.87,0,0,0,.1.9,12.76,12.76,0,0,0,.7,2.8,16,16,0,0,0,1.2,2.7,4.35,4.35,0,0,0,.7-.6c-.8-1.1-3.4-7.9-.1-11.8,3.1-.1,3.5,8.9,2.9,9.8,0,0,1.5-1,2-1.3-.7-.3-3-8,.9-11.2,0,0,3.5,1.3,2,9.5.6-.4,1.4-.7,2.3-1.2-.4-.8-2.8-6.6,1-9.7,2.1.8,2,7.2,1.1,8.6.7-.3,1.4-.7,2-1-1.2-.6-1.1-6.6.9-8.2,2.3,2.1,1.7,5.7,1.1,7.3l1.7-.7a6,6,0,0,1,.7-6.9c1.1.7,1.4,2.8.9,6.2.5-.2.8-.3,1.2-.5-.3-.6-1.1-4,.9-5.9,1.8.9,1.2,4.7,1,5.1l1-.4c-.4-.8-.6-3.6,1-5,.7.5,1.3,1.8.7,4.2a6.12,6.12,0,0,1,1.2-.5c-.6-.6-.2-3.1.7-4.1,1,.4,1.4,2.6,1.1,3.3l1-.5c-.3-.5-.4-2.9.6-3.5,1,.7.9,2.4.8,2.8.3-.2,1.1-.6,1.1-.6a2.15,2.15,0,0,1,.4-3c1,.2,1,2.1.9,2.2.4-.3,1-.7,1.3-.9-.9-.2-.8-1.7-.3-2.3.6.1,1,.5,1.2,1.6.2-.2.8-.7,1-.9-.6,0-1.2-1.2-.4-2a1.52,1.52,0,0,1,1.1,1.3A1.51,1.51,0,0,0,42,7a1.46,1.46,0,0,1-.4-1.8c.5,0,1,.7,1.1,1l.5-.7c-.3-.2-.9-.9-.4-1.5.6,0,.8.5.9.9C37.8,16.5,13.8,18.5,1.3,32.5c0,0-1.3,1.4-1.3,2v4.7H.3A22.57,22.57,0,0,1,7,29.7" transform="translate(0)"/></g><g class="cls-2"><path class="cls-3" d="M51.9.4a1.92,1.92,0,0,0-1.9,2,2,2,0,1,0,3.9-.1,1.86,1.86,0,0,0-2-1.9m1.8,1.8A1.77,1.77,0,0,1,52,4a1.69,1.69,0,0,1-1.7-1.7A1.69,1.69,0,0,1,52,.6a1.73,1.73,0,0,1,1.7,1.6" transform="translate(0)"/></g><g class="cls-2"><polygon class="cls-3" points="51.7 1.9 51.7 1.7 50.7 1.7 50.7 1.9 51.1 1.9 51.1 3.1 51.3 3.1 51.3 1.9 51.7 1.9"/></g><g class="cls-2"><polygon class="cls-3" points="53.1 3.1 53.1 1.7 52.9 1.7 52.4 2.5 52 1.7 51.8 1.7 51.8 3.1 52 3.1 52 2.2 52.3 2.8 52.6 2.8 52.9 2.2 52.9 3.1 53.1 3.1"/></g><g class="cls-2"><path class="cls-3" d="M48.1,47.3h-2V42h2a2,2,0,0,1,1.4.5,2.08,2.08,0,0,1,.5,2v.4a2.88,2.88,0,0,1-.5,2,2,2,0,0,1-1.4.4m-.9-.9H48a1.14,1.14,0,0,0,.8-.3c.2-.2.2-.6.2-1.4s0-1.1-.2-1.4A1,1,0,0,0,48,43h-.8Z" transform="translate(0)"/></g><g class="cls-2"><path class="cls-3" d="M25.8,47.3H22.2V43.7c0-.4,0-1.1.2-1.3s.4-.4.9-.4h2.5v1H23.9a.6.6,0,0,0-.4.1.75.75,0,0,0-.1.5v.6h2.1v1H23.4v1.3h2.5v.8Z" transform="translate(0)"/></g><g class="cls-2"><path class="cls-3" d="M8.8,42H5.2v3.6c0,.4,0,1.1.2,1.3s.4.4.9.4H8.8v-1H6.9a.6.6,0,0,1-.4-.1.75.75,0,0,1-.1-.5v-.6H8.5v-1H6.3V42.9H8.8Z" transform="translate(0)"/></g><g class="cls-2"><path class="cls-3" d="M32.8,46.4h2.4v1H31.7V42.7h0a.55.55,0,0,0-.4-.6H32c.4,0,.8.1.8,1.2Z" transform="translate(0)"/></g><g class="cls-2"><polygon class="cls-3" points="4.1 47.3 3.2 47.3 1.1 44.1 1.1 47.3 0 47.3 0 42 1 42 3 45.2 3 42 4.1 42 4.1 47.3"/></g><g class="cls-2"><path class="cls-3" d="M43.9,44.4V42.6a.46.46,0,0,0-.3-.5h.6c.5,0,.8.4.8,1.1v4.3H44l-2-3.4v3.2H40.9V42h1L44,45.2v-.8Z" transform="translate(0)"/></g><g class="cls-2"><path class="cls-3" d="M38.5,42.5c-.1-.4-.3-.5-.6-.5h-.4l-2,5.4h1.1l.3-.9h1.9l.3.9h1.1Zm-1.2,3,.6-1.8.6,1.8Z" transform="translate(0)"/></g><g class="cls-2"><path class="cls-3" d="M29.3,42.5c-.1-.4-.3-.5-.6-.5h-.4l-2,5.4h1.1l.3-.9h1.9l.3.9H31Zm-1.2,3,.6-1.8.6,1.8Z" transform="translate(0)"/></g><g class="cls-2"><path class="cls-3" d="M11.5,45.3l1-3.3h.8l1,3.3L15,42h1.1l-1.4,5.4h-.9l-1-3.2-1,3.2H11L9.8,42.8a.75.75,0,0,0-.6-.7h.7a.8.8,0,0,1,.9.7Z" transform="translate(0)"/></g><g class="cls-2"><path class="cls-3" d="M21,43.4a7.6,7.6,0,0,0,.4-1.1V42H17.9v1h2.2l-2.3,3.5v.9h3.6v-1H19.1Z" transform="translate(0)"/></g><g class="cls-2"><polygon class="cls-4" points="24.3 54.4 23.4 54.4 23.4 51.9 22.6 53.5 22.1 53.5 21.3 51.9 21.3 54.4 20.4 54.4 20.4 50 21.3 50 22.4 52.3 23.5 50 24.3 50 24.3 54.4"/></g><g class="cls-2"><path class="cls-4" d="M4.9,54.4a1.66,1.66,0,0,1-1.2-.5c-.4-.4-.4-.9-.4-1.7V52a2.41,2.41,0,0,1,.4-1.7A5.27,5.27,0,0,1,4.9,50a1.85,1.85,0,0,1,1.2.5,2.29,2.29,0,0,1,.4,1.7h0a2.29,2.29,0,0,1-.4,1.7,1.66,1.66,0,0,1-1.2.5m0-3.6a.76.76,0,0,0-.5.2c-.2.2-.2.3-.2,1.2s0,1,.2,1.2a.72.72,0,0,0,1,0c.2-.2.2-.4.2-1.2s0-1-.2-1.2a.76.76,0,0,0-.5-.2" transform="translate(0)"/></g><g class="cls-2"><path class="cls-4" d="M14.6,54.4h-1l-.8-1.7h-.6v1.7h-.9V50H13a1.29,1.29,0,0,1,1.4,1.3,1.17,1.17,0,0,1-.8,1.1Zm-2.4-2.5H13c.4,0,.6-.2.6-.5s-.2-.5-.6-.5h-.8Z" transform="translate(0)"/></g><g class="cls-2"><path class="cls-4" d="M18.2,54.4a2.11,2.11,0,0,1-1.6-.6h0l.6-.6h0a1.53,1.53,0,0,0,1,.4c.5,0,.7-.2.7-.5,0-.1,0-.3-.1-.3s-.2-.1-.4-.1l-.5-.1a1.51,1.51,0,0,1-.8-.4,1.22,1.22,0,0,1-.3-.9A1.32,1.32,0,0,1,18.3,50a2.17,2.17,0,0,1,1.4.5h0l-.6.5h0a1.1,1.1,0,0,0-.9-.3c-.4,0-.6.2-.6.5a.37.37,0,0,0,.1.3c.1.1.2.1.4.2l.5.1a3.39,3.39,0,0,1,.8.3,1.22,1.22,0,0,1,.3.9c.1.9-.6,1.4-1.5,1.4" transform="translate(0)"/></g><g class="cls-2"><polygon class="cls-4" points="2 54.4 1.1 54.4 1.1 50.8 0 50.8 0 50 3.1 50 3.1 50.8 2 50.8 2 54.4"/></g><g class="cls-2"><path class="cls-4" d="M8.8,54.4a1.5,1.5,0,0,1-1.6-1.5V50h.9v2.8a.71.71,0,1,0,1.4,0V50h.9v2.8a1.52,1.52,0,0,1-1.6,1.6" transform="translate(0)"/></g><g class="cls-2"><path class="cls-4" d="M15.3,51.2v-.6a.46.46,0,0,0-.3-.5h.5c.3,0,.6.1.6.9v3.4h-.9Z" transform="translate(0)"/></g><g class="cls-2"><polygon class="cls-3" points="155.6 7.7 155.8 6.7 155.1 6 153.2 7.1 152 6.6 151.2 4.5 150.3 4.6 150.4 5.6 150.2 5.9 149.6 4.9 149.7 4 149.3 2.5 147.9 1.2 146.8 1.3 146 0 145.2 0.5 146.3 1.7 146.3 2.1 149.3 6.6 149.2 8.2 148.7 9.8 147.5 10.7 147.6 11.4 149.4 12.3 149.8 13.1 148.8 15.1 149 15.6 149.7 15.6 150.1 16 151 15.5 152.4 13.2 153.2 11.3 152.9 10.9 153.3 9.9 154.2 9.9 154.3 10.4 155 10 154.9 9 155.4 8.7 155.6 7.7"/></g><g class="cls-2"><path class="cls-3" d="M140.3,4.5c0-.6.2-1,.7-1s.7.4.7,1V8.2c0,.6-.2,1-.7,1s-.7-.4-.7-1Zm-3.5-1.9V9.9l2.3,2.3h3.8l2.3-2.3V2.6L142.9.3h-3.8Z" transform="translate(0)"/></g><g class="cls-2"><polygon class="cls-3" points="142.4 26.8 143 26.7 143 26 143.7 24.3 144.4 22.3 145.3 21.7 146.2 21.8 146.6 21.7 146.8 21.2 146.2 20.6 146.4 20.2 147.3 19.1 147.4 18.3 147.9 18 148.6 16.7 148.4 16.3 148.5 15.8 148.4 15.6 148.5 15.1 147.8 14.8 146.7 15.5 146.7 15.4 146.8 14.9 146.5 14.7 146.2 14.8 146.1 14.7 146.3 14.3 146.4 14.1 146.3 13.8 145 14.8 144.5 16.8 143.7 17.2 143.3 19.1 140 22.2 139 22.6 137.5 24.7 136.5 27 137 27.8 138.2 27.5 138.5 27.9 139.1 27.9 139.1 28.3 140.3 28.4 141.4 27.8 142.4 26.8"/></g><g class="cls-2"><path class="cls-3" d="M154.6,24c0,.6-.2,1-.7,1s-.7-.4-.7-1V20.3c0-.6.2-1,.7-1s.7.4.7,1Zm3.5,1.8V18.5l-2.3-2.3H152l-2.3,2.3v7.3l2.3,2.3h3.8Z" transform="translate(0)"/></g><g class="cls-2"><polygon class="cls-3" points="138.5 28.5 138 28.6 138.2 29.3 137.4 30.3 137.7 30.4 139.2 30 139.5 29.4 139.3 29.2 138.5 28.5"/></g><g class="cls-2"><polygon class="cls-3" points="94.5 28.1 100.7 28.1 100.7 0.4 97.5 0.4 95.4 2.5 91.9 2.5 91.9 7.9 94.5 7.9 94.5 28.1"/></g><g class="cls-2"><path class="cls-3" d="M107,.4l-3.9,3.9V24.2l3.9,3.9h6.9l3.9-3.9V4.3L113.9.4ZM111.6,22a1,1,0,0,1-1,1.1h-.4a1,1,0,0,1-1-1.1V6.4a1,1,0,0,1,1-1.1h.4a1,1,0,0,1,1,1.1Z" transform="translate(0)"/></g><g class="cls-2"><path class="cls-3" d="M131,28.1l3.9-3.9V4.3L131,.4h-6.9l-3.9,3.9V24.2l3.9,3.9ZM126.3,6.4a1,1,0,0,1,1-1.1h.4a1,1,0,0,1,1,1.1V22a1,1,0,0,1-1,1.1h-.4a1,1,0,0,1-1-1.1Z" transform="translate(0)"/></g><g class="cls-2"><path class="cls-3" d="M165.2.4V28.1h6.2V18.3h4.5l3.9-3.9V4.2L175.9.3H165.2Zm8.4,11.9a.94.94,0,0,1-1,1h-1.3v-8h1.3a1,1,0,0,1,1,1Z" transform="translate(0)"/></g><g class="cls-2"><path class="cls-3" d="M181.7.4V24.2l3.9,3.9h6.9l3.9-3.9V.4h-6.2V22a1,1,0,0,1-1,1.1h-.4a1,1,0,0,1-1-1.1V.4Z" transform="translate(0)"/></g><g class="cls-2"><path class="cls-3" d="M213.4,4.2,209.5.3H198.8V28H205V17.4h1.3a1,1,0,0,1,1,1v6.9l.3,2.7h6.2l-.3-3V17.4l-2.7-2.7,2.7-2.7V4.2Zm-6.2,7a.94.94,0,0,1-1,1H205V5.3h1.3a1,1,0,0,1,1,1v4.9Z" transform="translate(0)"/></g><g class="cls-2"><polygon class="cls-3" points="215.7 28.1 227.4 28.1 227.4 22.8 221.9 22.8 221.9 16.7 226.9 16.7 226.9 11.4 221.9 11.4 221.9 5.7 227.4 5.7 227.4 0.4 215.7 0.4 215.7 28.1"/></g><g class="cls-2"><polygon class="cls-3" points="101.4 41.2 101.2 41.2 99.1 32.3 94.5 32.3 94.5 54.3 99.1 54.3 99.1 44.8 99.3 44.8 101.8 54.3 106 54.3 106 32.3 101.4 32.3 101.4 41.2"/></g><g class="cls-2"><polygon class="cls-3" points="107.9 54.3 117.2 54.3 117.2 50.1 112.8 50.1 112.8 45.3 116.8 45.3 116.8 41.1 112.8 41.1 112.8 36.5 117.2 36.5 117.2 32.3 107.9 32.3 107.9 54.3"/></g><g class="cls-2"><polygon class="cls-3" points="141.2 36.5 145.9 36.5 141.3 50.5 141.3 54.3 151.3 54.3 151.3 50.1 146.7 50.1 151.3 36.3 151.3 32.3 141.2 32.3 141.2 36.5"/></g><g class="cls-2"><polygon class="cls-3" points="152.8 54.3 162.1 54.3 162.1 50.1 157.8 50.1 157.8 45.3 161.7 45.3 161.7 41.1 157.8 41.1 157.8 36.5 162.1 36.5 162.1 32.3 152.8 32.3 152.8 54.3"/></g><g class="cls-2"><polygon class="cls-3" points="177.8 32.3 177.8 54.3 186.6 54.3 186.6 50.1 182.6 50.1 182.6 32.3 177.8 32.3"/></g><g class="cls-2"><polygon class="cls-3" points="209.2 41.2 209 41.2 206.9 32.3 202.3 32.3 202.3 54.3 206.9 54.3 206.9 44.8 207.1 44.8 209.6 54.3 213.8 54.3 213.8 32.3 209.2 32.3 209.2 41.2"/></g><g class="cls-2"><path class="cls-3" d="M215.7,54.3h8.5l3.1-3.1V35.4l-3.1-3.1h-8.5Zm4.9-18.1h1a.79.79,0,0,1,.8.8V49.6a.74.74,0,0,1-.8.8h-1Z" transform="translate(0)"/></g><g class="cls-2"><polygon class="cls-3" points="130.3 42.5 130.1 42.5 129.1 32.3 125.5 32.3 124.5 42.5 124.2 42.5 123.1 32.3 118.5 32.3 121.3 54.3 125.7 54.3 127 44.8 127.2 44.8 128.5 54.3 132.9 54.3 135.7 32.3 131.4 32.3 130.3 42.5"/></g><g class="cls-2"><path class="cls-3" d="M166.8,32.3l-3.5,22H168l.4-3.6h2.9l.4,3.6h4.9l-3.5-22Zm2.1,14.5.9-7.2h.2l.9,7.2Z" transform="translate(0)"/></g><g class="cls-2"><path class="cls-3" d="M191.2,32.3l-3.5,22h4.7l.4-3.6h2.9l.4,3.6H201l-3.5-22Zm2.1,14.5.9-7.2h.2l.9,7.2Z" transform="translate(0)"/></g><g class="cls-2"><rect class="cls-4" x="71.6" y="0.4" width="1.4" height="54"/></g></svg>